<svg width="27" height="27" viewBox="0 0 27 27" fill="none" xmlns="http://www.w3.org/2000/svg">
<path fill-rule="evenodd" clip-rule="evenodd" d="M25.6615 6.663C25.1544 6.06741 24.6473 5.79551 23.874 5.79551H6.75284C6.34716 5.79551 6.01754 5.48476 5.97951 5.06914L5.73864 2.16885C5.7006 1.72863 5.38366 1.36739 4.95262 1.28841L1.92901 0.823587C1.40923 0.744606 0.914801 1.09549 0.826057 1.62505C0.737314 2.14296 1.09229 2.64792 1.59939 2.73855L3.51371 3.07519L4.68005 17.1895C4.81951 18.8986 6.21405 20.218 7.90017 20.218H21.7315C23.3415 20.218 24.7107 19.0151 24.9389 17.3824L26.1433 8.88871C26.2574 8.11315 26.1686 7.2586 25.6615 6.663ZM12.3581 11.9775C12.9887 11.9775 13.5 11.4663 13.5 10.8356C13.5 10.205 12.9887 9.69376 12.3581 9.69376C11.7274 9.69376 11.2162 10.205 11.2162 10.8356C11.2162 11.4663 11.7274 11.9775 12.3581 11.9775ZM18.8287 10.9308C18.8287 11.5614 18.3174 12.0727 17.6868 12.0727C17.0562 12.0727 16.5449 11.5614 16.5449 10.9308C16.5449 10.3002 17.0562 9.78892 17.6868 9.78892C18.3174 9.78892 18.8287 10.3002 18.8287 10.9308ZM16.9041 15.8333C15.8754 14.5988 13.9792 14.5988 12.9504 15.8333C12.7654 16.0554 12.4354 16.0854 12.2133 15.9003C11.9913 15.7153 11.9613 15.3853 12.1463 15.1632C13.5936 13.4265 16.261 13.4265 17.7083 15.1632C17.8933 15.3853 17.8633 15.7153 17.6412 15.9003C17.4192 16.0854 17.0892 16.0554 16.9041 15.8333ZM7.69704 22.2644C6.63212 22.2644 5.77004 23.1448 5.77004 24.2324C5.77004 25.3071 6.63212 26.1875 7.69704 26.1875C8.74928 26.1875 9.61136 25.3071 9.61136 24.2324C9.61136 23.1448 8.74928 22.2644 7.69704 22.2644ZM21.9594 22.2644C20.8945 22.2644 20.0324 23.1448 20.0324 24.2324C20.0324 25.3071 20.8945 26.1875 21.9594 26.1875C23.0117 26.1875 23.8738 25.3071 23.8738 24.2324C23.8738 23.1448 23.0117 22.2644 21.9594 22.2644Z" fill="#9EA7B6"/>
</svg>
